<svg width="24" height="24" viewBox="0 0 24 24" fill="none" xmlns="http://www.w3.org/2000/svg">
<path d="M21.586 19.586L16 14H14V16L19.586 21.586C20.138 22.138 21.034 22.138 21.586 21.586C22.138 21.034 22.138 20.138 21.586 19.586Z" fill="white"/>
<path d="M9 3C7.4087 3 5.88258 3.63214 4.75736 4.75736C3.63214 5.88258 3 7.4087 3 9C3 10.5913 3.63214 12.1174 4.75736 13.2426C5.88258 14.3679 7.4087 15 9 15C10.5913 15 12.1174 14.3679 13.2426 13.2426C14.3679 12.1174 15 10.5913 15 9C15 7.4087 14.3679 5.88258 13.2426 4.75736C12.1174 3.63214 10.5913 3 9 3V3Z" stroke="white" stroke-width="2" stroke-miterlimit="10"/>
<path d="M13 13L15.5 15.5" stroke="white" stroke-miterlimit="10"/>
</svg>
