<svg width="32" height="32" viewBox="0 0 32 32" fill="none" xmlns="http://www.w3.org/2000/svg">
<path d="M30.7505 9.004H28.5V7.004H29.2055C30.1305 7.004 30.8655 6.159 30.6755 5.204C30.5355 4.489 29.8655 4.004 29.1405 4.004L22.75 4C22.335 4 22 3.665 22 3.25C22 2.835 22.335 2.5 22.75 2.5H25.705C26.275 2.5 26.805 2.14 26.955 1.59C27.18 0.76 26.55 0 25.75 0H3.795C3.225 0 2.695 0.36 2.545 0.91C2.32 1.74 2.95 2.5 3.75 2.5H5.25C5.595 2.5 5.91 2.64 6.135 2.865C6.36 3.09 6.5 3.405 6.5 3.75C6.5 4.44 5.94 5 5.25 5H2C1.175 5 0.5 5.675 0.5 6.5C0.5 7.325 1.175 8 2 8H4V18.756C3.698 18.9845 3.5 19.343 3.5 19.75C3.5 20.157 3.698 20.516 4 20.744V22H2.75C1.5125 22 0.5 23.0125 0.5 24.25C0.5 25.4875 1.5125 26.5 2.75 26.5H12.25C12.94 26.5 13.5 27.06 13.5 27.75C13.5 28.44 12.94 29 12.25 29H9.5C8.67 29 8 29.67 8 30.5C8 31.33 8.67 32 9.5 32H29.5C30.33 32 31 31.33 31 30.5C31 29.67 30.33 29 29.5 29H26.75C26.06 29 25.5 28.44 25.5 27.75C25.5 27.06 26.06 26.5 26.75 26.5H28.75C29.9875 26.5 31 25.4875 31 24.25C31 23.0125 29.9875 22 28.75 22H28.5V11.5025L30.7055 11.504C31.2755 11.504 31.8055 11.144 31.9555 10.594C32.1755 9.7635 31.5455 9.004 30.7505 9.004Z" fill="url(#paint0_radial)"/>
<path d="M28 6H4.5C3.6715 6 3 6.6715 3 7.5V24C3 24.8285 3.6715 25.5 4.5 25.5H28C28.8285 25.5 29.5 24.8285 29.5 24V7.5C29.5 6.6715 28.8285 6 28 6ZM7.5 23.5C7.5 23.776 7.276 24 7 24H5.5C5.224 24 5 23.776 5 23.5V22C5 21.724 5.224 21.5 5.5 21.5H7C7.276 21.5 7.5 21.724 7.5 22V23.5ZM7.5 9.5C7.5 9.776 7.276 10 7 10H5.5C5.224 10 5 9.776 5 9.5V8C5 7.724 5.224 7.5 5.5 7.5H7C7.276 7.5 7.5 7.724 7.5 8V9.5ZM12.5 23.5C12.5 23.776 12.276 24 12 24H10.5C10.224 24 10 23.776 10 23.5V22C10 21.724 10.224 21.5 10.5 21.5H12C12.276 21.5 12.5 21.724 12.5 22V23.5ZM12.5 9.5C12.5 9.776 12.276 10 12 10H10.5C10.224 10 10 9.776 10 9.5V8C10 7.724 10.224 7.5 10.5 7.5H12C12.276 7.5 12.5 7.724 12.5 8V9.5ZM17.5 23.5C17.5 23.776 17.276 24 17 24H15.5C15.224 24 15 23.776 15 23.5V22C15 21.724 15.224 21.5 15.5 21.5H17C17.276 21.5 17.5 21.724 17.5 22V23.5ZM17.5 9.5C17.5 9.776 17.276 10 17 10H15.5C15.224 10 15 9.776 15 9.5V8C15 7.724 15.224 7.5 15.5 7.5H17C17.276 7.5 17.5 7.724 17.5 8V9.5ZM22.5 23.5C22.5 23.776 22.276 24 22 24H20.5C20.224 24 20 23.776 20 23.5V22C20 21.724 20.224 21.5 20.5 21.5H22C22.276 21.5 22.5 21.724 22.5 22V23.5ZM22.5 9.5C22.5 9.776 22.276 10 22 10H20.5C20.224 10 20 9.776 20 9.5V8C20 7.724 20.224 7.5 20.5 7.5H22C22.276 7.5 22.5 7.724 22.5 8V9.5ZM27.5 23.5C27.5 23.776 27.276 24 27 24H25.5C25.224 24 25 23.776 25 23.5V22C25 21.724 25.224 21.5 25.5 21.5H27C27.276 21.5 27.5 21.724 27.5 22V23.5ZM27.5 9.5C27.5 9.776 27.276 10 27 10H25.5C25.224 10 25 9.776 25 9.5V8C25 7.724 25.224 7.5 25.5 7.5H27C27.276 7.5 27.5 7.724 27.5 8V9.5Z" fill="url(#paint1_linear)"/>
<path d="M12.5 18.5C12.5 17.6715 13.1715 17 14 17C14.8285 17 15.5 17.6715 15.5 18.5C15.5 19.3285 14.8285 20 14 20C13.1715 20 12.5 19.3285 12.5 18.5ZM29.5 17V20V24C29.5 24.8285 28.8285 25.5 28 25.5H15C14.1715 25.5 13.5 24.8285 13.5 24C13.5 23.1715 14.1715 22.5 15 22.5V23.5C15 23.776 15.224 24 15.5 24H17C17.276 24 17.5 23.776 17.5 23.5V22.5H18.25C18.9405 22.5 19.5 21.9405 19.5 21.25C19.5 20.5595 18.9405 20 18.25 20H18C17.1715 20 16.5 19.3285 16.5 18.5C16.5 17.6715 17.1715 17 18 17H29.5ZM25 23.5C25 23.776 25.224 24 25.5 24H27C27.276 24 27.5 23.776 27.5 23.5V22C27.5 21.724 27.276 21.5 27 21.5H25.5C25.224 21.5 25 21.724 25 22V23.5ZM22 21.5H20.5C20.224 21.5 20 21.724 20 22V23.5C20 23.776 20.224 24 20.5 24H22C22.276 24 22.5 23.776 22.5 23.5V22C22.5 21.724 22.276 21.5 22 21.5Z" fill="url(#paint2_linear)"/>
<path d="M11 12.25C11 11.5595 10.4405 11 9.75 11C9.0595 11 8.5 10.4405 8.5 9.75C8.5 9.0595 9.0595 8.5 9.75 8.5H10V8C10 7.724 10.224 7.5 10.5 7.5H12C12.276 7.5 12.5 7.724 12.5 8V8.2445C12.802 8.0165 13 7.658 13 7.25C13 6.5595 12.4405 6 11.75 6H4.5C3.6715 6 3 6.6715 3 7.5V8.5V11V13.5H9.75C10.4405 13.5 11 12.9405 11 12.25ZM7.5 9.5C7.5 9.776 7.276 10 7 10H5.5C5.224 10 5 9.776 5 9.5V8C5 7.724 5.224 7.5 5.5 7.5H7C7.276 7.5 7.5 7.724 7.5 8V9.5Z" fill="url(#paint3_linear)"/>
<defs>
<radialGradient id="paint0_radial" cx="0" cy="0" r="1" gradientUnits="userSpaceOnUse" gradientTransform="translate(16.25 16) scale(15.8755)">
<stop stop-color="#AFEEFF"/>
<stop offset="0.193" stop-color="#BBF1FF"/>
<stop offset="0.703" stop-color="#D7F8FF"/>
<stop offset="1" stop-color="#E1FAFF"/>
</radialGradient>
<linearGradient id="paint1_linear" x1="16.25" y1="24.953" x2="16.25" y2="-3.7505" gradientUnits="userSpaceOnUse">
<stop stop-color="#155CDE"/>
<stop offset="0.278" stop-color="#1F7FE5"/>
<stop offset="0.569" stop-color="#279CEB"/>
<stop offset="0.82" stop-color="#2CAFEF"/>
<stop offset="1" stop-color="#2EB5F0"/>
</linearGradient>
<linearGradient id="paint2_linear" x1="21" y1="16.961" x2="21" y2="25.5765" gradientUnits="userSpaceOnUse">
<stop stop-color="#1B79DA"/>
<stop offset="0.434" stop-color="#1769D1"/>
<stop offset="1" stop-color="#1359C7"/>
</linearGradient>
<linearGradient id="paint3_linear" x1="8" y1="13.5" x2="8" y2="6" gradientUnits="userSpaceOnUse">
<stop offset="0.004" stop-color="#2E93E9"/>
<stop offset="0.195" stop-color="#2F98EA"/>
<stop offset="1" stop-color="#34A8ED"/>
</linearGradient>
</defs>
</svg>
