<svg width="219" height="183" viewBox="0 0 219 183" fill="none" xmlns="http://www.w3.org/2000/svg">
<path d="M169.002 36.016H160V28.016H162.822C166.522 28.016 169.462 24.636 168.702 20.816C168.142 17.956 165.462 16.016 162.562 16.016L137 16C135.34 16 134 14.66 134 13C134 11.34 135.34 10 137 10H148.82C151.1 10 153.22 8.56 153.82 6.36C154.72 3.04 152.2 0 149 0H61.18C58.9 0 56.78 1.44 56.18 3.64C55.28 6.96 57.8 10 61 10H67C68.38 10 69.64 10.56 70.54 11.46C71.44 12.36 72 13.62 72 15C72 17.76 69.76 20 67 20H54C50.7 20 48 22.7 48 26C48 29.3 50.7 32 54 32H62V75.024C60.792 75.938 60 77.372 60 79C60 80.628 60.792 82.064 62 82.976V88H57C52.05 88 48 92.05 48 97C48 101.95 52.05 106 57 106H95C97.76 106 100 108.24 100 111C100 113.76 97.76 116 95 116H84C80.68 116 78 118.68 78 122C78 125.32 80.68 128 84 128H164C167.32 128 170 125.32 170 122C170 118.68 167.32 116 164 116H153C150.24 116 148 113.76 148 111C148 108.24 150.24 106 153 106H161C165.95 106 170 101.95 170 97C170 92.05 165.95 88 161 88H160V46.01L168.822 46.016C171.102 46.016 173.222 44.576 173.822 42.376C174.702 39.054 172.182 36.016 169.002 36.016Z" fill="url(#paint0_radial)"/>
<path d="M158 24H64C60.686 24 58 26.686 58 30V96C58 99.314 60.686 102 64 102H158C161.314 102 164 99.314 164 96V30C164 26.686 161.314 24 158 24ZM76 94C76 95.104 75.104 96 74 96H68C66.896 96 66 95.104 66 94V88C66 86.896 66.896 86 68 86H74C75.104 86 76 86.896 76 88V94ZM76 38C76 39.104 75.104 40 74 40H68C66.896 40 66 39.104 66 38V32C66 30.896 66.896 30 68 30H74C75.104 30 76 30.896 76 32V38ZM96 94C96 95.104 95.104 96 94 96H88C86.896 96 86 95.104 86 94V88C86 86.896 86.896 86 88 86H94C95.104 86 96 86.896 96 88V94ZM96 38C96 39.104 95.104 40 94 40H88C86.896 40 86 39.104 86 38V32C86 30.896 86.896 30 88 30H94C95.104 30 96 30.896 96 32V38ZM116 94C116 95.104 115.104 96 114 96H108C106.896 96 106 95.104 106 94V88C106 86.896 106.896 86 108 86H114C115.104 86 116 86.896 116 88V94ZM116 38C116 39.104 115.104 40 114 40H108C106.896 40 106 39.104 106 38V32C106 30.896 106.896 30 108 30H114C115.104 30 116 30.896 116 32V38ZM136 94C136 95.104 135.104 96 134 96H128C126.896 96 126 95.104 126 94V88C126 86.896 126.896 86 128 86H134C135.104 86 136 86.896 136 88V94ZM136 38C136 39.104 135.104 40 134 40H128C126.896 40 126 39.104 126 38V32C126 30.896 126.896 30 128 30H134C135.104 30 136 30.896 136 32V38ZM156 94C156 95.104 155.104 96 154 96H148C146.896 96 146 95.104 146 94V88C146 86.896 146.896 86 148 86H154C155.104 86 156 86.896 156 88V94ZM156 38C156 39.104 155.104 40 154 40H148C146.896 40 146 39.104 146 38V32C146 30.896 146.896 30 148 30H154C155.104 30 156 30.896 156 32V38Z" fill="url(#paint1_linear)"/>
<path d="M96 74C96 70.686 98.686 68 102 68C105.314 68 108 70.686 108 74C108 77.314 105.314 80 102 80C98.686 80 96 77.314 96 74ZM164 68V80V96C164 99.314 161.314 102 158 102H106C102.686 102 100 99.314 100 96C100 92.686 102.686 90 106 90V94C106 95.104 106.896 96 108 96H114C115.104 96 116 95.104 116 94V90H119C121.762 90 124 87.762 124 85C124 82.238 121.762 80 119 80H118C114.686 80 112 77.314 112 74C112 70.686 114.686 68 118 68H164ZM146 94C146 95.104 146.896 96 148 96H154C155.104 96 156 95.104 156 94V88C156 86.896 155.104 86 154 86H148C146.896 86 146 86.896 146 88V94ZM134 86H128C126.896 86 126 86.896 126 88V94C126 95.104 126.896 96 128 96H134C135.104 96 136 95.104 136 94V88C136 86.896 135.104 86 134 86Z" fill="url(#paint2_linear)"/>
<path d="M90 49C90 46.238 87.762 44 85 44C82.238 44 80 41.762 80 39C80 36.238 82.238 34 85 34H86V32C86 30.896 86.896 30 88 30H94C95.104 30 96 30.896 96 32V32.978C97.208 32.066 98 30.632 98 29C98 26.238 95.762 24 93 24H64C60.686 24 58 26.686 58 30V34V44V54H85C87.762 54 90 51.762 90 49ZM76 38C76 39.104 75.104 40 74 40H68C66.896 40 66 39.104 66 38V32C66 30.896 66.896 30 68 30H74C75.104 30 76 30.896 76 32V38Z" fill="url(#paint3_linear)"/>
<path d="M1.85955 152.794H9.95188V175H14.6564V152.794H22.7488V148.818H1.85955V152.794ZM29.5499 175.396C32.6309 175.396 34.4718 173.952 35.3155 172.303H35.4689V175H39.9178V161.858C39.9178 156.668 35.6863 155.108 31.9405 155.108C27.8113 155.108 24.6408 156.949 23.6181 160.528L27.9391 161.142C28.3993 159.8 29.7033 158.649 31.9661 158.649C34.1138 158.649 35.29 159.749 35.29 161.679V161.756C35.29 163.085 33.8965 163.149 30.432 163.52C26.6223 163.929 22.9789 165.067 22.9789 169.49C22.9789 173.351 25.8042 175.396 29.5499 175.396ZM30.7516 171.996C28.8212 171.996 27.4405 171.114 27.4405 169.413C27.4405 167.636 28.9874 166.895 31.0584 166.601C32.2729 166.435 34.7019 166.128 35.3027 165.642V167.956C35.3027 170.142 33.5385 171.996 30.7516 171.996ZM49.199 163.494C49.199 160.656 50.9121 159.02 53.3539 159.02C55.7445 159.02 57.1763 160.592 57.1763 163.213V175H61.8042V162.497C61.8169 157.793 59.1323 155.108 55.0797 155.108C52.1394 155.108 50.1195 156.514 49.2246 158.7H48.9945V155.364H44.5712V175H49.199V163.494ZM68.682 182.364C72.2871 182.364 74.3709 180.51 75.4831 177.378L83.3709 155.389L78.4235 155.364L73.8851 170.193H73.6806L69.155 155.364H64.2459L71.3667 175.409L70.9703 176.47C70.1138 178.707 68.7587 178.861 66.7388 178.273L65.665 181.878C66.2914 182.134 67.4164 182.364 68.682 182.364ZM91.671 175.396C94.752 175.396 96.5929 173.952 97.4366 172.303H97.59V175H102.039V161.858C102.039 156.668 97.8074 155.108 94.0616 155.108C89.9324 155.108 86.7619 156.949 85.7392 160.528L90.0602 161.142C90.5204 159.8 91.8244 158.649 94.0872 158.649C96.2349 158.649 97.411 159.749 97.411 161.679V161.756C97.411 163.085 96.0176 163.149 92.5531 163.52C88.7434 163.929 85.1 165.067 85.1 169.49C85.1 173.351 87.9252 175.396 91.671 175.396ZM92.8727 171.996C90.9423 171.996 89.5616 171.114 89.5616 169.413C89.5616 167.636 91.1085 166.895 93.1795 166.601C94.394 166.435 96.823 166.128 97.4238 165.642V167.956C97.4238 170.142 95.6596 171.996 92.8727 171.996ZM115.827 148.818V175H120.378V156.974H120.621L127.856 174.923H131.257L138.493 157.013H138.736V175H143.287V148.818H137.483L129.71 167.79H129.403L121.631 148.818H115.827ZM156.812 175.384C162.565 175.384 166.221 171.331 166.221 165.259C166.221 159.173 162.565 155.108 156.812 155.108C151.059 155.108 147.403 159.173 147.403 165.259C147.403 171.331 151.059 175.384 156.812 175.384ZM156.838 171.676C153.655 171.676 152.095 168.838 152.095 165.246C152.095 161.653 153.655 158.777 156.838 158.777C159.97 158.777 161.53 161.653 161.53 165.246C161.53 168.838 159.97 171.676 156.838 171.676ZM187.021 155.364H182.099L177.574 169.95H177.369L172.856 155.364H167.922L174.915 175H180.028L187.021 155.364ZM190.224 175H194.851V155.364H190.224V175ZM192.55 152.577C194.02 152.577 195.222 151.452 195.222 150.071C195.222 148.678 194.02 147.553 192.55 147.553C191.067 147.553 189.866 148.678 189.866 150.071C189.866 151.452 191.067 152.577 192.55 152.577ZM208.303 175.384C212.88 175.384 216.025 173.146 216.843 169.733L212.522 169.247C211.896 170.909 210.362 171.778 208.367 171.778C205.376 171.778 203.394 169.81 203.356 166.447H217.035V165.028C217.035 158.138 212.893 155.108 208.061 155.108C202.436 155.108 198.767 159.237 198.767 165.297C198.767 171.459 202.384 175.384 208.303 175.384ZM203.369 163.328C203.509 160.822 205.363 158.713 208.124 158.713C210.784 158.713 212.573 160.656 212.599 163.328H203.369Z" fill="white"/>
<defs>
<radialGradient id="paint0_radial" cx="0" cy="0" r="1" gradientUnits="userSpaceOnUse" gradientTransform="translate(111 64) scale(63.502)">
<stop stop-color="#AFEEFF"/>
<stop offset="0.193" stop-color="#BBF1FF"/>
<stop offset="0.703" stop-color="#D7F8FF"/>
<stop offset="1" stop-color="#E1FAFF"/>
</radialGradient>
<linearGradient id="paint1_linear" x1="111" y1="99.812" x2="111" y2="-15.002" gradientUnits="userSpaceOnUse">
<stop stop-color="#155CDE"/>
<stop offset="0.278" stop-color="#1F7FE5"/>
<stop offset="0.569" stop-color="#279CEB"/>
<stop offset="0.82" stop-color="#2CAFEF"/>
<stop offset="1" stop-color="#2EB5F0"/>
</linearGradient>
<linearGradient id="paint2_linear" x1="130" y1="67.844" x2="130" y2="102.306" gradientUnits="userSpaceOnUse">
<stop stop-color="#1B79DA"/>
<stop offset="0.434" stop-color="#1769D1"/>
<stop offset="1" stop-color="#1359C7"/>
</linearGradient>
<linearGradient id="paint3_linear" x1="78" y1="54" x2="78" y2="24" gradientUnits="userSpaceOnUse">
<stop offset="0.004" stop-color="#2E93E9"/>
<stop offset="0.195" stop-color="#2F98EA"/>
<stop offset="1" stop-color="#34A8ED"/>
</linearGradient>
</defs>
</svg>
